# xmcd
#
# Track frame offsets:
#	150
#	13605
#	27961
#	46075
#	61534
#	76018
#	91574
#	107043
#	123297
#	141134
#	155718
#	170170
#	186375
#
# Disc length: 2691 seconds
#
# Revision: 0
# Processed by: cddbd v1.5.2PL0 Copyright (c) Steve Scherf et al.
# Submitted via: dBpowerAMP V4.0
#
DISCID=990a810d
DTITLE=Izak Davel - Verlore Harte
DYEAR=2009
DGENRE=
TTITLE0=Verlei My
TTITLE1=Gooi  jou lyf hier oor my
TTITLE2=Genade
TTITLE3=Permanente Pen
TTITLE4=Tot jy my kom haar
TTITLE5=Vlug van 'n Duif
TTITLE6=Vashou vir my
TTITLE7=Petrol vir my vuur
TTITLE8=Verlore Harte
TTITLE9=Step Back
TTITLE10=Langpad
TTITLE11=Vreemdeling
TTITLE12=Jy's vir my
EXTD=
EXTT0=
EXTT1=
EXTT2=
EXTT3=
EXTT4=
EXTT5=
EXTT6=
EXTT7=
EXTT8=
EXTT9=
EXTT10=
EXTT11=
EXTT12=
PLAYORDER=
